<?xml version="1.0" encoding="UTF-8" standalone="no"?>
<svg
   xmlns:dc="http://purl.org/dc/elements/1.1/"
   xmlns:cc="http://creativecommons.org/ns#"
   xmlns:rdf="http://www.w3.org/1999/02/22-rdf-syntax-ns#"
   xmlns:svg="http://www.w3.org/2000/svg"
   xmlns="http://www.w3.org/2000/svg"
   height="141.6544"
   width="141.6544"
   id="svg1133"
   viewBox="0 0 141.6544 141.6544"
   version="1.1">
  <defs
     id="defs7" />
  <g
     id="layer1"
     transform="translate(-3.866329,-16.610591)">
    <path
       style="fill:#ffffff;stroke-width:1.24861"
       d="m 80.7793,30.669446 c -1.925166,0.266836 -4.105189,1.255744 -5.065754,3.005513 0.04446,2.156099 3.113489,1.533159 4.282436,2.831299 1.518372,0.777735 1.747885,2.60223 2.784842,3.730114 1.913752,-0.06418 1.52928,-2.78299 1.676326,-4.177908 0.238716,-2.461768 -0.81258,-5.350968 -3.67785,-5.389018 z"
       id="path9"
       transform="translate(3.866329,16.610591)" />
    <path
       style="fill:#ccb878;fill-opacity:1;stroke-width:0.8829"
       d="m 84.665528,36.093697 c -2.217969,0.102706 -5.299755,-0.0459 -6.30585,2.434557 -2.522002,4.72589 -6.213528,12.087774 -8.029568,17.130413 -0.387214,1.27033 2.819455,-0.833212 3.237561,-1.980131 2.558056,-3.277004 5.850436,-6.413354 10.066271,-7.259415 0.78149,-0.292231 1.704096,-0.948648 2.387107,-0.0657 1.873055,1.867982 4.482459,3.831734 4.264495,6.790373 0.366349,2.594842 -1.762194,4.654575 -2.873108,6.841487 -2.363357,3.745603 -4.422171,8.12203 -8.644414,10.109635 -4.047632,1.566433 -9.124282,-0.439155 -11.065464,-4.288764 -0.568731,-1.642175 0.793544,-3.17279 1.50928,-4.555213 0.994366,-0.731693 1.40833,-3.50444 0.101289,-2.844727 -2.371,1.681054 -5.938568,5.693104 -5.938568,5.693104 0,0 -4.245136,3.075199 -3.060078,4.313399 1.804493,0.720845 -0.878451,-0.553306 -1.632467,-0.416556 -3.60333,0.290765 -7.303974,0.482116 -10.771028,1.697784 -3.573259,0.836064 -7.154836,1.642857 -10.718692,2.507315 -2.425077,0.510693 -22.742235,-11.825425 -24.661042,-9.984335 -1.444844,1.927359 -2.9499252,5.978286 -5.4883182,6.759047 -2.798921,1.434778 12.1469022,13.554727 10.4067352,16.277897 -0.467685,2.52894 -0.29697,5.239058 -0.567943,7.864017 -0.272825,3.587831 -0.560986,7.300536 0.781012,10.730956 1.557807,4.2718 3.378839,8.77971 6.919508,11.80003 1.421472,0.86183 2.510677,-1.01265 3.473898,-1.77208 2.3064,-2.60099 5.971252,-2.99505 9.104138,-4.14779 9.588379,-3.06959 19.19723,-6.10678 28.661767,-9.53851 1.19167,-0.491675 2.701546,-1.294171 3.642097,-1.735905 -2.524504,2.236865 -5.957724,2.894945 -8.946696,4.289805 -8.943921,3.53321 -17.911003,6.87114 -27.007755,9.92943 -1.493999,0.70743 -3.945654,1.16094 -4.068829,3.1685 0.448182,1.83818 2.798651,1.98106 4.301082,2.43867 5.135601,0.85113 10.404161,0.64817 15.576365,0.24435 7.539032,-1.11079 14.961631,-3.02892 22.175694,-5.46296 3.814944,-2.32162 8.070759,-3.90738 12.518168,-4.44434 1.656633,-0.35278 3.42224,-0.1156 4.986372,-0.76377 0.512078,-2.06972 -0.06967,-4.31898 0.01409,-6.46038 -0.10776,-6.066036 -0.553059,-12.239368 -0.01044,-18.223267 0.502629,-4.069301 2.996875,-7.815522 2.57919,-12.012642 -0.04232,-0.886498 -0.952493,-2.090646 0.391919,-2.305438 2.260399,-1.081566 4.797728,-2.305891 6.953726,-3.175509 -6.211458,10.005008 -9.592307,21.793946 -9.271884,33.591498 0.147246,7.678168 0.706315,15.475988 2.989404,22.847348 2.135853,5.75619 6.446538,10.44002 11.067188,14.34444 4.93637,3.082 11.01896,2.36421 16.53808,1.96463 4.56071,-0.39261 9.30393,-1.04178 13.15954,-3.71641 4.38852,-2.85498 8.66158,-7.26169 8.8109,-12.81176 0.0588,-6.86104 -3.0979,-13.23438 -6.18904,-19.18218 -3.72386,-7.121672 -7.859,-13.970426 -11.72834,-20.994572 -1.82048,-3.393744 -4.54318,-6.127941 -7.09477,-8.956955 -0.84118,-1.111367 0.90397,-1.897684 1.6133,-2.437752 1.22395,-0.577557 2.45077,-1.37367 3.57337,-1.983324 -0.16192,0.791727 -1.09526,1.585357 -1.1963,2.534932 -0.84594,3.986323 1.78357,7.57756 3.45246,10.973759 1.53386,2.546668 2.30984,5.644204 4.54974,7.706085 1.63386,0.776351 2.02231,-1.557937 2.01806,-2.727244 0.36307,-6.770867 0.5312,-13.684071 -1.38441,-20.263901 -1.96374,-7.521477 -6.18964,-14.912489 -13.07745,-18.885428 -2.67979,-0.830849 -4.79393,-3.025269 -7.5885,-3.511825 -7.78642,-3.633787 -15.595602,-8.353007 -24.502852,-8.074678 z"
       id="path886" />
    <path
       id="path1062"
       style="fill:#000000;stroke:#000000;stroke-width:1.3;stroke-miterlimit:4;stroke-dasharray:none;stroke-opacity:1"
       d="m 83.012,33.765743 c -5.066,1.846 -9.37,8.198 -10.399,13.903 -2.077,5.33 -6.525,13 -11.574,16.377 1.825,2.441 6.5,-4.256 8.502,-5.144 -1.245,2.519 -4.261,5.321 -1.972,8.201 3.141,3.943 9.294,5.67 13.486,2.3 4.275,-3.175 6.031,-8.458 9.089,-12.634 1.887,-2.983 1.246,-6.974 -1.532,-9.176 -1.129,-1.507 -2.964,-3.94 -4.946,-2.123 -3.481,0.031 -9.342,4.375 -12.299,9.988 1.376,-4.028 6.177,-14.658 8.433,-18.211 9.962,-2.694 20.74,2.881 29.41,7.762 1.2,-1.046 5.39,3.095 7.38,3.062 12.23,7.621 15.41,24.545 13.82,38.478 0.01,4.297 -2.17,1.098 -3.42,-2.127 -2.34,-5.254 -8.16,-12.085 -3.52,-16.078 -1.29,-2.505 -1.85,-0.284 -3.54,0.293 -1.69,0.744 -5.1,2.281 -3.28,4.6 6.93,5.838 8.48,12.448 13.37,19.71 4.24,8.478997 12.86,20.654997 11.26,30.542997 -1.35,6.82 -10.6,13.32 -17.41,13.44 -6.15,0.92 -13.7,1.84 -19.38,-1.03 -4.32,-3.37 -8.13,-7.9 -10.6,-12.7 -2.837,-7.432 -3.391,-18.516 -3.549,-26.426997 0.369,-12.263 3.796,-23.13 10.729,-33.279 -4.132,2.082 -6.784,2.96 -10.897,5.074 2.469,5.27 -2.143,10.167 -2.087,15.48 -0.841,6.608 0.49,16.446997 0.292,23.077997 -6.917,0.464 -11.389,1.341 -17.207,5.04 -10.355,3.28 -24.421,7.274 -36.284,5.244 -1.323,-0.28 -8.567,-1.074 -2.147,-3.991 5.247,-1.901 10.724,-3.301 15.931,-5.429 6.474,-2.648 13.082,-5.116 19.504,-7.805 1.754,-1.276997 3.59,-2.622997 4.2,-4.823997 -1.692,1.84 -8.986,5.100997 -13.923,6.265997 -8.404,2.999 -17.099,5.864 -25.673,8.32 -5.812,1.768 -5.459,4.393 -7.547,5.021 -3.068,-1.96 -7.284,-10.683 -7.773,-15.566997 -0.166,-4.07 0.635,-9.162 0.498,-13.257 0.212,-2.766 6.053,-5.671 8.674,-6.681 1.989,-1.155 2.798,-4.241 4.253,-5.651 1.886,-0.785 4.252,-0.909 6.646,-0.973 4.441,-1.724 8.918,-1.787 13.4,-3.506 3.847,-0.995 7.206,-0.275 11.053,-1.272 -1.374,-2.858 -4.649,-1.775 -6.893,-0.978 -7.361,1.332 -14.651,3.668 -22.214,3.648 1.006,-1.965 1.817,-4.136 0.438,-6.202 -2.292,-4.474 -6.93,-7.236 -11.336,-9.31 -4.745,-1.286 -9.24,2.058 -12.325,5.307 -4.7566,5.908 -6.2903,14.309 -4.2545,21.569 1.7348,3.785 6.7715,2.931 10.09,2.354 0.341,6.188 -2.464,12.639 0.461,18.567997 1.787,5.747 3.602,13.184 10.097,15.183 15.889,4.5 33.155,1.44 47.712,-5.878 4.317,-1.756 9.258,-3.596 13.882,-2.49 1.385,1.924 -0.044,4.593 0.717,6.838 0.803,8.52 6.502,15.68 13.543,20.15 3.66,2.56 7.9,5.07 12.54,4.15 9.01,-0.71 18.25,-3.79 24.98,-9.96 5,-4.68 7.06,-12.43 4.03,-18.749 -2.31,-6.5 -7.94,-11.363 -10.18,-17.786997 -1.11,-10.396 -0.33,-21.001 -2.26,-31.284 -2.03,-8.023 -8.33,-14.491 -15.93,-17.527 -1.25,-1.316 -3.58,-1.384 -4.61,-2.069 -3.18,-2.869 -7.55,-4.26 -11.386,-6.166 -5.005,-2.348 -10.496,-4.05 -16.072,-3.662 z m 3.526,14.052 c 2.795,1.315 2.03,9.309 -0.289,10.553 0.806,-5.957 -5.991,-7.477 -8.947,-6.393 1.305,-0.98 5.722,-6.295 9.236,-4.16 z m -74.102,17.478 c 6.819,3.15 2.212,7.415 -0.562,9.2 -2.2402,-0.011 -2.9048,-3.675 -2.8061,-5.302 0.3727,-1.171 2.7521,-2.874 3.3681,-3.898 z" />
  </g>
  <metadata
     id="metadata6">
    <rdf:RDF>
      <cc:Work>
        <dc:format>image/svg+xml</dc:format>
        <dc:type
           rdf:resource="http://purl.org/dc/dcmitype/StillImage" />
        <cc:license
           rdf:resource="http://creativecommons.org/publicdomain/zero/1.0/" />
        <dc:publisher>
          <cc:Agent
             rdf:about="http://openclipart.org/">
            <dc:title>Openclipart</dc:title>
          </cc:Agent>
        </dc:publisher>
        <dc:title></dc:title>
      </cc:Work>
      <cc:License
         rdf:about="http://creativecommons.org/publicdomain/zero/1.0/">
        <cc:permits
           rdf:resource="http://creativecommons.org/ns#Reproduction" />
        <cc:permits
           rdf:resource="http://creativecommons.org/ns#Distribution" />
        <cc:permits
           rdf:resource="http://creativecommons.org/ns#DerivativeWorks" />
      </cc:License>
    </rdf:RDF>
  </metadata>
</svg>
